REM DIRINDEX 1\2\5,1\2\6,1\2\7,1\2\8,1\3\9,1\3\10,1\3\11,1\4\12,1\4\13,1\4\14,1\4\15,1\4\16
REM DIRNAME folder01,folder02,folder03,folder04,folder05,folder06,folder07,folder08,folder09,folder10,folder11,folder12,folder13,folder14,folder15,folder16
TITLE ""
FILE "1200_sec03_0630_0638.mp3" MP3
  TRACK 01 AUDIO
    TITLE "0:"
    INDEX 01 00:00:00
  TRACK 02 AUDIO
    TITLE "12:cjc034_06173"
    INDEX 01 00:00:17
  TRACK 03 AUDIO
    TITLE "0:"
    INDEX 01 00:01:24
  TRACK 04 AUDIO
    TITLE "13:cjc034_06174"
    INDEX 01 00:01:58
  TRACK 05 AUDIO
    TITLE "0:"
    INDEX 01 00:02:71
  TRACK 06 AUDIO
    TITLE "14:cjc034_06175"
    INDEX 01 00:03:29
  TRACK 07 AUDIO
    TITLE "0:"
    INDEX 01 00:04:36
  TRACK 08 AUDIO
    TITLE "15:cjc034_06176"
    INDEX 01 00:04:68
  TRACK 09 AUDIO
    TITLE "0:"
    INDEX 01 00:08:62
  TRACK 10 AUDIO
    TITLE "12:cjc034_06177"
    INDEX 01 00:10:18
  TRACK 11 AUDIO
    TITLE "0:"
    INDEX 01 00:11:37
  TRACK 12 AUDIO
    TITLE "13:cjc034_06178"
    INDEX 01 00:11:68
  TRACK 13 AUDIO
    TITLE "0:"
    INDEX 01 00:14:11
  TRACK 14 AUDIO
    TITLE "14:cjc034_06179"
    INDEX 01 00:14:45
  TRACK 15 AUDIO
    TITLE "0:"
    INDEX 01 00:15:64
  TRACK 16 AUDIO
    TITLE "15:cjc034_06180"
    INDEX 01 00:16:20
  TRACK 17 AUDIO
    TITLE "0:"
    INDEX 01 00:19:11
  TRACK 18 AUDIO
    TITLE "12:cjc034_06181"
    INDEX 01 00:20:43
  TRACK 19 AUDIO
    TITLE "0:"
    INDEX 01 00:21:53
  TRACK 20 AUDIO
    TITLE "13:cjc034_06182"
    INDEX 01 00:22:13
  TRACK 21 AUDIO
    TITLE "0:"
    INDEX 01 00:23:34
  TRACK 22 AUDIO
    TITLE "14:cjc034_06183"
    INDEX 01 00:23:71
  TRACK 23 AUDIO
    TITLE "0:"
    INDEX 01 00:25:07
  TRACK 24 AUDIO
    TITLE "15:cjc034_06184"
    INDEX 01 00:25:39
  TRACK 25 AUDIO
    TITLE "0:"
    INDEX 01 00:29:48
  TRACK 26 AUDIO
    TITLE "12:cjc034_06185"
    INDEX 01 00:31:16
  TRACK 27 AUDIO
    TITLE "0:"
    INDEX 01 00:32:29
  TRACK 28 AUDIO
    TITLE "13:cjc034_06186"
    INDEX 01 00:32:60
  TRACK 29 AUDIO
    TITLE "0:"
    INDEX 01 00:34:73
  TRACK 30 AUDIO
    TITLE "14:cjc034_06187"
    INDEX 01 00:35:31
  TRACK 31 AUDIO
    TITLE "0:"
    INDEX 01 00:36:42
  TRACK 32 AUDIO
    TITLE "15:cjc034_06188"
    INDEX 01 00:37:03
  TRACK 33 AUDIO
    TITLE "0:"
    INDEX 01 00:40:73
  TRACK 34 AUDIO
    TITLE "12:cjc034_06189"
    INDEX 01 00:42:29
  TRACK 35 AUDIO
    TITLE "0:"
    INDEX 01 00:43:52
  TRACK 36 AUDIO
    TITLE "13:cjc034_06190"
    INDEX 01 00:44:12
  TRACK 37 AUDIO
    TITLE "0:"
    INDEX 01 00:46:37
  TRACK 38 AUDIO
    TITLE "14:cjc034_06191"
    INDEX 01 00:46:70
  TRACK 39 AUDIO
    TITLE "0:"
    INDEX 01 00:48:16
  TRACK 40 AUDIO
    TITLE "15:cjc034_06192"
    INDEX 01 00:48:51
  TRACK 41 AUDIO
    TITLE "0:"
    INDEX 01 00:53:35
  TRACK 42 AUDIO
    TITLE "12:cjc034_06193"
    INDEX 01 00:54:70
  TRACK 43 AUDIO
    TITLE "0:"
    INDEX 01 00:56:08
  TRACK 44 AUDIO
    TITLE "13:cjc034_06194"
    INDEX 01 00:56:41
  TRACK 45 AUDIO
    TITLE "0:"
    INDEX 01 00:57:58
  TRACK 46 AUDIO
    TITLE "14:cjc034_06195"
    INDEX 01 00:58:15
  TRACK 47 AUDIO
    TITLE "0:"
    INDEX 01 00:59:28
  TRACK 48 AUDIO
    TITLE "15:cjc034_06196"
    INDEX 01 00:59:61
  TRACK 49 AUDIO
    TITLE "0:"
    INDEX 01 01:02:61
  TRACK 50 AUDIO
    TITLE "12:cjc034_06197"
    INDEX 01 01:04:19
  TRACK 51 AUDIO
    TITLE "0:"
    INDEX 01 01:05:40
  TRACK 52 AUDIO
    TITLE "13:cjc034_06198"
    INDEX 01 01:05:73
  TRACK 53 AUDIO
    TITLE "0:"
    INDEX 01 01:07:10
  TRACK 54 AUDIO
    TITLE "14:cjc034_06199"
    INDEX 01 01:07:45
  TRACK 55 AUDIO
    TITLE "0:"
    INDEX 01 01:08:64
  TRACK 56 AUDIO
    TITLE "15:cjc034_06200"
    INDEX 01 01:09:22
  TRACK 57 AUDIO
    TITLE "0:"
    INDEX 01 01:13:73
  TRACK 58 AUDIO
    TITLE "12:cjc034_06201"
    INDEX 01 01:15:31
  TRACK 59 AUDIO
    TITLE "0:"
    INDEX 01 01:16:46
  TRACK 60 AUDIO
    TITLE "13:cjc034_06202"
    INDEX 01 01:17:02
  TRACK 61 AUDIO
    TITLE "0:"
    INDEX 01 01:19:25
  TRACK 62 AUDIO
    TITLE "14:cjc034_06203"
    INDEX 01 01:19:56
  TRACK 63 AUDIO
    TITLE "0:"
    INDEX 01 01:20:71
  TRACK 64 AUDIO
    TITLE "15:cjc034_06204"
    INDEX 01 01:21:29
  TRACK 65 AUDIO
    TITLE "0:"
    INDEX 01 01:26:46
  TRACK 66 AUDIO
    TITLE "12:cjc034_06205"
    INDEX 01 01:28:04
  TRACK 67 AUDIO
    TITLE "0:"
    INDEX 01 01:29:25
  TRACK 68 AUDIO
    TITLE "13:cjc034_06206"
    INDEX 01 01:29:60
  TRACK 69 AUDIO
    TITLE "0:"
    INDEX 01 01:33:01
  TRACK 70 AUDIO
    TITLE "14:cjc034_06207"
    INDEX 01 01:33:34
  TRACK 71 AUDIO
    TITLE "0:"
    INDEX 01 01:34:57
  TRACK 72 AUDIO
    TITLE "15:cjc034_06208"
    INDEX 01 01:35:16
  TRACK 73 AUDIO
    TITLE "0:"
    INDEX 01 01:38:49
